<svg id="visual" viewBox="0 0 1440 126" width="1440" height="126" xmlns="http://www.w3.org/2000/svg" xmlns:xlink="http://www.w3.org/1999/xlink" version="1.1"><rect x="0" y="0" width="1440" height="126" fill="#012a35"></rect><path d="M0 78L55 49L111 25L166 46L222 89L277 77L332 65L388 105L443 79L498 65L554 49L609 101L665 43L720 99L775 97L831 111L886 111L942 80L997 110L1052 73L1108 109L1163 66L1218 61L1274 39L1329 115L1385 63L1440 87L1440 127L1385 127L1329 127L1274 127L1218 127L1163 127L1108 127L1052 127L997 127L942 127L886 127L831 127L775 127L720 127L665 127L609 127L554 127L498 127L443 127L388 127L332 127L277 127L222 127L166 127L111 127L55 127L0 127Z" fill="#001e26" stroke-linecap="square" stroke-linejoin="bevel"></path></svg>