<svg id="visual" viewBox="0 0 900 450" width="900" height="450" xmlns="http://www.w3.org/2000/svg" xmlns:xlink="http://www.w3.org/1999/xlink" version="1.1"><g><g transform="translate(793 198)"><path d="M0 -76.9L66.6 -38.4L66.6 38.4L0 76.9L-66.6 38.4L-66.6 -38.4Z" fill="#a5b4fc"></path></g><g transform="translate(278 196)"><path d="M0 -38L32.9 -19L32.9 19L0 38L-32.9 19L-32.9 -19Z" fill="#a5b4fc"></path></g><g transform="translate(106 172)"><path d="M0 -50L43.3 -25L43.3 25L0 50L-43.3 25L-43.3 -25Z" fill="#a5b4fc"></path></g><g transform="translate(179 372)"><path d="M0 -70L60.6 -35L60.6 35L0 70L-60.6 35L-60.6 -35Z" fill="#a5b4fc"></path></g><g transform="translate(561 124)"><path d="M0 -57L49.4 -28.5L49.4 28.5L0 57L-49.4 28.5L-49.4 -28.5Z" fill="#a5b4fc"></path></g></g></svg>